ffmpeg version 4.2.7-0ubuntu0.1 Copyright (c) 2000-2022 the FFmpeg developers
  built with gcc 9 (Ubuntu 9.4.0-1ubuntu1~20.04.1)
  configuration: --prefix=/usr --extra-version=0ubuntu0.1 --toolchain=hardened --libdir=/usr/lib/x86_64-linux-gnu --incdir=/usr/include/x86_64-linux-gnu --arch=amd64 --enable-gpl --disable-stripping --enable-avresample --disable-filter=resample --enable-avisynth --enable-gnutls --enable-ladspa --enable-libaom --enable-libass --enable-libbluray --enable-libbs2b --enable-libcaca --enable-libcdio --enable-libcodec2 --enable-libflite --enable-libfontconfig --enable-libfreetype --enable-libfribidi --enable-libgme --enable-libgsm --enable-libjack --enable-libmp3lame --enable-libmysofa --enable-libopenjpeg --enable-libopenmpt --enable-libopus --enable-libpulse --enable-librsvg --enable-librubberband --enable-libshine --enable-libsnappy --enable-libsoxr --enable-libspeex --enable-libssh --enable-libtheora --enable-libtwolame --enable-libvidstab --enable-libvorbis --enable-libvpx --enable-libwavpack --enable-libwebp --enable-libx265 --enable-libxml2 --enable-libxvid --enable-libzmq --enable-libzvbi --enable-lv2 --enable-omx --enable-openal --enable-opencl --enable-opengl --enable-sdl2 --enable-libdc1394 --enable-libdrm --enable-libiec61883 --enable-nvenc --enable-chromaprint --enable-frei0r --enable-libx264 --enable-shared
  libavutil      56. 31.100 / 56. 31.100
  libavcodec     58. 54.100 / 58. 54.100
  libavformat    58. 29.100 / 58. 29.100
  libavdevice    58.  8.100 / 58.  8.100
  libavfilter     7. 57.100 /  7. 57.100
  libavresample   4.  0.  0 /  4.  0.  0
  libswscale      5.  5.100 /  5.  5.100
  libswresample   3.  5.100 /  3.  5.100
  libpostproc    55.  5.100 / 55.  5.100
Routing option strict to both codec and muxer layer
[h264 @ 0x55dcd17ea000] Reinit context to 704x1280, pix_fmt: yuv420p
Input #0, mov,mp4,m4a,3gp,3g2,mj2, from '/var/www/html/project/media/video/original/lv_0_20220614180010.mp4':
  Metadata:
    major_brand     : isom
    minor_version   : 512
    compatible_brands: isomiso2avc1mp41
    Hw              : 1
                    : 
    LvMetaInfo      : {"data":{"appVersion":"6.0.0","capabilityName":"","ccTtVid":"","draftInfo":{"adjust":0,"aiMatting":0,"audioToText":0,"chroma":0,"coverTemplateId":"","curveSpeed":0,"faceEffectId":"","filterId":"","gameplayAlgorithm":"","graphs":0,"keyframe":0,"mask":0,"mi
    bitRate         : 4000000
                    : 
    copyright       : 8a8aa5f0fa3adc8d35874e478a0092a2
    maxrate         : 30000000
                    : 
    te_is_reencode  : 1
                    : 
    encoder         : bytevehwavc
  Duration: 00:00:26.08, start: 0.000000, bitrate: 3880 kb/s
    Stream #0:0(und): Video: h264 (High), 1 reference frame (avc1 / 0x31637661), yuv420p(tv, bt709, left), 704x1280, 3752 kb/s, 25 fps, 25 tbr, 1000k tbn, 2000k tbc (default)
    Metadata:
      handler_name    : VideoHandler
    Stream #0:1(und): Audio: aac (LC) (mp4a / 0x6134706D), 44100 Hz, stereo, fltp, 128 kb/s (default)
    Metadata:
      handler_name    : SoundHandler
Input #1, png_pipe, from '/var/www/html/project/static/images/templates/logo_vertical.png':
  Duration: N/A, bitrate: N/A
    Stream #1:0: Video: png, 1 reference frame, rgba(pc), 1920x1080 [SAR 2835:2835 DAR 16:9], 25 tbr, 25 tbn, 25 tbc
[Parsed_scale_1 @ 0x55dcd182fd00] w:1280 h:720 flags:'bilinear' interl:0
[Parsed_scale_4 @ 0x55dcd184e840] w:-1 h:720 flags:'bilinear' interl:0
[Parsed_scale_6 @ 0x55dcd18081c0] w:1280 h:720 flags:'bilinear' interl:0
Stream mapping:
  Stream #0:0 (h264) -> split (graph 0)
  Stream #1:0 (png) -> scale (graph 0)
  overlay (graph 0) -> Stream #0:0 (libx264)
  Stream #0:1 -> #0:1 (aac (native) -> aac (native))
Press [q] to stop, [?] for help
[h264 @ 0x55dcd17ee940] Reinit context to 704x1280, pix_fmt: yuv420p
[graph_1_in_0_1 @ 0x55dcd1d6d180] tb:1/44100 samplefmt:fltp samplerate:44100 chlayout:0x3
[Parsed_scale_1 @ 0x55dcd2194c40] w:1280 h:720 flags:'bilinear' interl:0
[Parsed_scale_4 @ 0x55dcd2197ac0] w:-1 h:720 flags:'bilinear' interl:0
[Parsed_scale_6 @ 0x55dcd2199480] w:1280 h:720 flags:'bilinear' interl:0
[graph 0 input from stream 0:0 @ 0x55dcd219c840] w:704 h:1280 pixfmt:yuv420p tb:1/1000000 fr:25/1 sar:0/1 sws_param:flags=2
[graph 0 input from stream 1:0 @ 0x55dcd219d8c0] w:1920 h:1080 pixfmt:rgba tb:1/25 fr:25/1 sar:2835/2835 sws_param:flags=2
[Parsed_scale_1 @ 0x55dcd2194c40] w:704 h:1280 fmt:yuv420p sar:0/1 -> w:1280 h:720 fmt:yuv420p sar:0/1 flags:0x2
[Parsed_boxblur_2 @ 0x55dcd2195480] luma_radius:36 luma_power:1 chroma_radius:18 chroma_power:1 alpha_radius:36 alpha_power:1 w:1280 chroma_w:640 h:720 chroma_h:360
[Parsed_setsar_3 @ 0x55dcd2196d80] w:1280 h:720 sar:0/1 dar:16/9 -> sar:1/1 dar:16/9
[Parsed_scale_4 @ 0x55dcd2197ac0] w:704 h:1280 fmt:yuv420p sar:0/1 -> w:396 h:720 fmt:yuva420p sar:0/1 flags:0x2
[Parsed_setsar_5 @ 0x55dcd21986c0] w:396 h:720 sar:0/1 dar:11/20 -> sar:1/1 dar:11/20
[Parsed_overlay_8 @ 0x55dcd219ab40] main w:1280 h:720 fmt:yuv420p overlay w:396 h:720 fmt:yuva420p
[Parsed_overlay_8 @ 0x55dcd219ab40] [framesync @ 0x55dcd219ac68] Selected 1/1000000 time base
[Parsed_overlay_8 @ 0x55dcd219ab40] [framesync @ 0x55dcd219ac68] Sync level 2
[Parsed_scale_6 @ 0x55dcd2199480] w:1920 h:1080 fmt:rgba sar:2835/2835 -> w:1280 h:720 fmt:yuva420p sar:1/1 flags:0x2
[Parsed_setsar_7 @ 0x55dcd2199f80] w:1280 h:720 sar:1/1 dar:16/9 -> sar:1/1 dar:16/9
[Parsed_overlay_9 @ 0x55dcd219bac0] main w:1280 h:720 fmt:yuv420p overlay w:1280 h:720 fmt:yuva420p
[Parsed_overlay_9 @ 0x55dcd219bac0] [framesync @ 0x55dcd219bc28] Selected 1/1000000 time base
[Parsed_overlay_9 @ 0x55dcd219bac0] [framesync @ 0x55dcd219bc28] Sync level 2
[libx264 @ 0x55dcd182fd00] using SAR=1/1
[libx264 @ 0x55dcd182fd00] using cpu capabilities: MMX2 SSE2Fast SSSE3 SSE4.2 AVX FMA3 BMI2 AVX2
[libx264 @ 0x55dcd182fd00] profile High, level 3.1
[libx264 @ 0x55dcd182fd00] 264 - core 155 r2917 0a84d98 - H.264/MPEG-4 AVC codec - Copyleft 2003-2018 - http://www.videolan.org/x264.html - options: cabac=1 ref=1 deblock=1:0:0 analyse=0x3:0x113 me=hex subme=2 psy=1 psy_rd=1.00:0.00 mixed_ref=0 me_range=16 chroma_me=1 trellis=0 8x8dct=1 cqm=0 deadzone=21,11 fast_pskip=1 chroma_qp_offset=0 threads=22 lookahead_threads=5 sliced_threads=0 nr=0 decimate=1 interlaced=0 bluray_compat=0 constrained_intra=0 bframes=3 b_pyramid=2 b_adapt=1 b_bias=0 direct=1 weightb=1 open_gop=0 weightp=1 keyint=250 keyint_min=25 scenecut=40 intra_refresh=0 rc_lookahead=10 rc=crf mbtree=1 crf=18.0 qcomp=0.60 qpmin=0 qpmax=69 qpstep=4 ip_ratio=1.40 aq=1:1.00
Output #0, mp4, to '/var/www/html/project/media/video/watermarks/lv_0_20220614180010.mp4':
  Metadata:
    major_brand     : isom
    minor_version   : 512
    compatible_brands: isomiso2avc1mp41
    Hw              : 1
                    : 
    LvMetaInfo      : {"data":{"appVersion":"6.0.0","capabilityName":"","ccTtVid":"","draftInfo":{"adjust":0,"aiMatting":0,"audioToText":0,"chroma":0,"coverTemplateId":"","curveSpeed":0,"faceEffectId":"","filterId":"","gameplayAlgorithm":"","graphs":0,"keyframe":0,"mask":0,"mi
    bitRate         : 4000000
                    : 
    copyright       : 8a8aa5f0fa3adc8d35874e478a0092a2
    maxrate         : 30000000
                    : 
    te_is_reencode  : 1
                    : 
    encoder         : Lavf58.29.100
    Stream #0:0: Video: h264 (libx264), 1 reference frame (avc1 / 0x31637661), yuv420p, 1280x720 [SAR 1:1 DAR 16:9], q=-1--1, 25 fps, 12800 tbn, 25 tbc (default)
    Metadata:
      encoder         : Lavc58.54.100 libx264
    Side data:
      cpb: bitrate max/min/avg: 0/0/0 buffer size: 0 vbv_delay: -1
    Stream #0:1(und): Audio: aac (LC) (mp4a / 0x6134706D), 44100 Hz, stereo, fltp, delay 1024, 128 kb/s (default)
    Metadata:
      handler_name    : SoundHandler
      encoder         : Lavc58.54.100 aac
[Parsed_overlay_8 @ 0x55dcd219ab40] [framesync @ 0x55dcd219ac68] Sync level 1
[Parsed_overlay_8 @ 0x55dcd219ab40] [framesync @ 0x55dcd219ac68] Sync level 0
[Parsed_overlay_9 @ 0x55dcd219bac0] [framesync @ 0x55dcd219bc28] Sync level 0
No more output streams to write to, finishing.
frame=  651 fps= 59 q=-1.0 Lsize=    7224kB time=00:00:26.02 bitrate=2273.7kbits/s speed=2.36x    
[AVIOContext @ 0x55dcd17e8280] Statistics: 0 seeks, 22 writeouts
video:6849kB audio:353kB subtitle:0kB other streams:0kB global headers:0kB muxing overhead: 0.310632%
Input file #0 (/var/www/html/project/media/video/original/lv_0_20220614180010.mp4):
  Input stream #0:0 (video): 651 packets read (12212877 bytes); 651 frames decoded; 
  Input stream #0:1 (audio): 1123 packets read (417623 bytes); 1121 frames decoded (1147904 samples); 
  Total: 1774 packets (12630500 bytes) demuxed
Input file #1 (/var/www/html/project/static/images/templates/logo_vertical.png):
  Input stream #1:0 (video): 1 packets read (93903 bytes); 1 frames decoded; 
  Total: 1 packets (93903 bytes) demuxed
Output file #0 (/var/www/html/project/media/video/watermarks/lv_0_20220614180010.mp4):
  Output stream #0:0 (video): 651 frames encoded; 651 packets muxed (7013514 bytes); 
  Output stream #0:1 (audio): 1121 frames encoded (1147904 samples); 1122 packets muxed (361450 bytes); 
  Total: 1773 packets (7374964 bytes) muxed
[AVIOContext @ 0x55dcd184fa80] Statistics: 2 seeks, 32 writeouts
[libx264 @ 0x55dcd182fd00] frame I:4     Avg QP:14.56  size: 73288
[libx264 @ 0x55dcd182fd00] frame P:211   Avg QP:17.86  size: 21443
[libx264 @ 0x55dcd182fd00] frame B:436   Avg QP:19.79  size:  5035
[libx264 @ 0x55dcd182fd00] consecutive B-frames:  9.1%  4.0%  2.8% 84.2%
[libx264 @ 0x55dcd182fd00] mb I  I16..4: 28.7% 39.6% 31.6%
[libx264 @ 0x55dcd182fd00] mb P  I16..4: 11.9% 12.0%  1.5%  P16..4: 27.5% 14.4%  8.0%  0.0%  0.0%    skip:24.8%
[libx264 @ 0x55dcd182fd00] mb B  I16..4:  1.5%  0.9%  0.0%  B16..8: 17.2%  6.3%  0.7%  direct:10.2%  skip:63.1%  L0:38.9% L1:44.6% BI:16.5%
[libx264 @ 0x55dcd182fd00] 8x8 transform intra:45.1% inter:24.9%
[libx264 @ 0x55dcd182fd00] coded y,uvDC,uvAC intra: 32.5% 53.2% 14.0% inter: 8.9% 19.9% 1.1%
[libx264 @ 0x55dcd182fd00] i16 v,h,dc,p: 23% 47%  7% 23%
[libx264 @ 0x55dcd182fd00] i8 v,h,dc,ddl,ddr,vr,hd,vl,hu: 13% 55% 13%  3%  3%  2%  5%  2%  3%
[libx264 @ 0x55dcd182fd00] i4 v,h,dc,ddl,ddr,vr,hd,vl,hu: 27% 27% 16%  4%  6%  5%  7%  4%  4%
[libx264 @ 0x55dcd182fd00] i8c dc,h,v,p: 40% 34% 11% 16%
[libx264 @ 0x55dcd182fd00] Weighted P-Frames: Y:2.8% UV:1.4%
[libx264 @ 0x55dcd182fd00] kb/s:2154.48
[aac @ 0x55dcd17ee0c0] Qavg: 9721.424
[AVIOContext @ 0x55dcd17f1240] Statistics: 16340078 bytes read, 150 seeks
[AVIOContext @ 0x55dcd18e9840] Statistics: 93903 bytes read, 0 seeks
